HIERARCHY
ROOT Hips
{
	OFFSET 0.000000 0.000000 0.000000 
	CHANNELS 6 Xposition Yposition Zposition Yrotation Zrotation Xrotation 
	JOINT Lumbar
	{
		OFFSET 0.000000 0.000000 0.000000 
		CHANNELS 3 Zrotation Xrotation Yrotation
		JOINT Neck
		{
			OFFSET 0.000000 0.445665 0.000000 
			CHANNELS 3 Zrotation Xrotation Yrotation
			End Site
			{
				OFFSET 0.000000 0.227535 0.000000 
			}
		}
		JOINT RightShoulder
		{
			OFFSET 0.019635 0.377685 0.194865 
			CHANNELS 3 Zrotation Xrotation Yrotation
			JOINT RightElbow
			{
				OFFSET 0.000000 -0.243375 0.000000 
				CHANNELS 2 Zrotation Yrotation
				JOINT RightWrist
				{
					OFFSET 0.000000 -0.264825 0.000000 
					CHANNELS 2 Zrotation Xrotation
					End Site
					{
						OFFSET 0.006600 -0.176220 0.000990 
					}
				}
			}
		}
		JOINT LeftShoulder
		{
			OFFSET 0.019635 0.377685 -0.194865 
			CHANNELS 3 Zrotation Xrotation Yrotation
			JOINT LeftElbow
			{
				OFFSET 0.000000 -0.243375 0.000000 
				CHANNELS 2 Zrotation Yrotation
				JOINT LeftWrist
				{
					OFFSET 0.000000 -0.264825 0.000000 
					CHANNELS 2 Zrotation Xrotation
					End Site
					{
						OFFSET 0.006600 -0.176220 -0.000990 
					}
				}
			}
		}
	}
	JOINT RightHip
	{
		OFFSET 0.052140 -0.069960 0.075570 
		CHANNELS 3 Zrotation Xrotation Yrotation
		JOINT RightKnee
		{
			OFFSET 0.000000 -0.402270 0.000000 
			CHANNELS 1 Zrotation
			JOINT RightAnkle
			{
				OFFSET 0.000000 -0.404085 0.000000 
				CHANNELS 3 Zrotation Xrotation Yrotation
				End Site
				{
					OFFSET 0.204105 -0.089430 0.008415 
				}
			}
		}
	}
	JOINT LeftHip
	{
		OFFSET 0.052140 -0.069960 -0.075570 
		CHANNELS 3 Zrotation Xrotation Yrotation
		JOINT LeftKnee
		{
			OFFSET 0.000000 -0.402270 0.000000 
			CHANNELS 1 Zrotation
			JOINT LeftAnkle
			{
				OFFSET 0.000000 -0.404085 0.000000 
				CHANNELS 3 Zrotation Xrotation Yrotation
				End Site
				{
					OFFSET 0.204105 -0.089430 -0.008415 
				}
			}
		}
	}
}
MOTION
Frames: 11
Frame Time: 0.02
-0.66611 -0.44463 0.13066 741.52056 -6.93572 -6.02719 19.43421 3.24637 -5.58335 -13.72022 7.11259 -2.11994 0.2945 -20.29508 1.01714 115.51632 73.68117 -8.07885 1.98195 -19.24431 12.46773 1.80535 106.49782 -83.70682 0.67049 0.5021 88.77655 -9.3184 -13.25381 -75.68738 -7.73841 -2.75317 -3.62407 92.42193 5.61548 6.56842 -76.30132 -9.27759 2.31263 3.49071
-0.66612 -0.44493 0.13087 741.52259 -6.5694 -5.99851 19.80973 3.20735 -5.63775 -14.0707 6.87565 -2.11994 -0.67932 -19.43055 1.07854 115.434 73.67325 -8.22495 2.2114 -19.65044 12.1811 2.01204 106.34025 -84.07971 0.70916 0.17162 88.40543 -9.30194 -13.24142 -75.79561 -7.67602 -2.68339 -3.58627 92.0411 5.5701 6.43222 -76.25961 -9.36102 2.26741 3.47228
-0.66607 -0.44522 0.13107 741.51752 -6.21755 -5.97051 20.17963 3.1686 -5.67767 -14.44505 6.64512 -2.11994 -1.53729 -18.57801 1.1669 115.30003 73.8123 -8.38412 2.50486 -20.06743 11.89725 2.2101 106.18528 -84.93006 0.78363 -0.60784 88.04889 -9.27279 -13.22732 -75.8921 -7.62862 -2.59939 -3.54244 91.67143 5.49122 6.25428 -76.18417 -9.48383 2.22585 3.45747
-0.66605 -0.44552 0.13128 741.51695 -5.85981 -5.94326 20.54641 3.13023 -5.72314 -14.80563 6.41569 -2.11994 -2.44231 -17.72122 1.23418 115.18948 73.87831 -8.53918 2.74481 -20.47367 11.61604 2.40765 106.0263 -85.52772 0.83682 -1.15317 87.68682 -9.24713 -13.21302 -75.98576 -7.58018 -2.52382 -3.50265 91.29729 5.4276 6.099 -76.11794 -9.59483 2.18311 3.44155
-0.666 -0.4458 0.13148 741.51099 -5.49993 -5.91143 20.93821 3.08976 -5.77321 -15.18106 6.16818 -2.11994 -3.36616 -16.8588 1.34361 115.077 73.96443 -8.68828 3.08446 -20.90418 11.31867 2.62312 105.87686 -86.26084 0.90953 -1.81089 87.32087 -9.23161 -13.20331 -76.11398 -7.50775 -2.43946 -3.45717 90.92069 5.36445 5.92945 -76.07416 -9.68403 2.1373 3.42306
-0.66601 -0.44612 0.13169 741.51451 -5.1479 -5.88941 21.27549 3.05387 -5.81003 -15.52961 5.96068 -2.11994 -4.22568 -16.01197 1.36936 114.95777 74.04536 -8.85161 3.23545 -21.28671 11.05509 2.79939 105.70956 -86.83547 0.95118 -2.34981 86.96642 -9.19162 -13.18354 -76.16748 -7.48849 -2.37038 -3.42225 90.55211 5.29146 5.77844 -75.97746 -9.82559 2.09935 3.41096
-0.6662 -0.44655 0.13191 741.54666 -4.81129 -5.89357 21.47185 3.02858 -5.81554 -15.8059 5.85716 -2.11994 -4.92777 -15.19573 1.16286 114.82356 74.08395 -9.05873 2.81845 -21.53547 10.88959 2.8711 105.48662 -86.79971 0.89252 -2.41226 86.63721 -9.0891 -13.13548 -76.01648 -7.61486 -2.34498 -3.41717 90.19992 5.20836 5.69895 -75.7361 -10.1133 2.07964 3.41486
-0.66646 -0.44702 0.13213 741.58848 -4.48259 -5.90773 21.612 3.00819 -5.80796 -16.05253 5.79469 -2.11994 -5.57043 -14.39667 0.86982 114.6858 74.11202 -9.27813 2.21508 -21.7354 10.75726 2.90344 105.24708 -86.59867 0.80261 -2.34758 86.31954 -8.96218 -13.07764 -75.79088 -7.79367 -2.33585 -3.42307 89.85606 5.11524 5.63802 -75.44428 -10.44983 2.06826 3.42522
-0.66669 -0.44747 0.13235 741.6254 -4.15173 -5.9178 21.77242 2.98685 -5.80515 -16.3074 5.71671 -2.11994 -6.24724 -13.59571 0.61194 114.55623 74.14035 -9.48675 1.71797 -21.95682 10.60591 2.95304 105.01896 -86.51295 0.73093 -2.36912 85.99823 -8.8449 -13.02451 -75.60006 -7.94692 -2.32064 -3.42449 89.51018 5.02049 5.56143 -75.1804 -10.75627 2.05495 3.43318
-0.66689 -0.44792 0.13259 741.66417 -3.81475 -5.92598 21.95482 2.96028 -5.80654 -16.58549 5.6256 -2.11994 -6.89309 -12.7695 0.37173 114.39868 74.19165 -9.71788 1.13299 -22.18146 10.47029 3.00533 104.77399 -86.27887 0.6434 -2.28966 85.67033 -8.73255 -12.96931 -75.40505 -8.10828 -2.29943 -3.42358 89.15677 4.94924 5.51231 -74.89421 -11.09756 2.03413 3.43911
-0.66717 -0.44838 0.13279 741.70149 -3.49297 -5.94046 22.07829 2.94558 -5.79658 -16.80756 5.57156 -2.11994 -7.58668 -12.00073 0.075 114.29722 74.19211 -9.90475 0.68474 -22.38782 10.31102 3.04238 104.56085 -86.30222 0.58106 -2.38004 85.35915 -8.60521 -12.91724 -75.20131 -8.26462 -2.29469 -3.43016 88.82149 4.82889 5.41289 -74.64288 -11.37728 2.03061 3.45062
